<svg aria-hidden="true" style="width:0;height:0;position:absolute;overflow:hidden" xmlns="http://www.w3.org/2000/svg"><defs><symbol id="icon-modal-close" viewBox="0 0 32 32"><path d="m18.006 16 11.79-11.79a1.421 1.421 0 0 0-2.006-2.005L16 13.995 4.21 2.191a1.427 1.427 0 0 0-2.02 2.02l11.804 11.79L2.19 27.791a1.415 1.415 0 0 0-.496 1.025 1.409 1.409 0 0 0 .416 1.061 1.424 1.424 0 0 0 2.087-.08l11.804-11.79 11.79 11.79a1.421 1.421 0 0 0 2.347-1.026 1.421 1.421 0 0 0-.341-.98l-11.79-11.79z"/></symbol></defs></svg>