<svg aria-hidden="true" style="width:0;height:0;position:absolute;overflow:hidden" xmlns="http://www.w3.org/2000/svg"><defs><symbol id="icon-modal-close" viewBox="0 0 32 32"><path d="m18.006 16 11.79-11.79a1.421 1.421 0 0 0-2.006-2.005L16 13.995 4.21 2.191a1.427 1.427 0 0 0-2.02 2.02l11.804 11.79L2.19 27.791a1.415 1.415 0 0 0-.496 1.025 1.409 1.409 0 0 0 .416 1.061 1.424 1.424 0 0 0 2.087-.08l11.804-11.79 11.79 11.79a1.421 1.421 0 0 0 2.347-1.026 1.421 1.421 0 0 0-.341-.98l-11.79-11.79z"/></symbol><symbol id="icon-up" viewBox="0 0 18 28"><path d="M16.797 20.5a.54.54 0 0 1-.156.359l-.781.781a.508.508 0 0 1-.359.156.54.54 0 0 1-.359-.156l-6.141-6.141L2.86 21.64c-.094.094-.234.156-.359.156s-.266-.063-.359-.156l-.781-.781c-.094-.094-.156-.234-.156-.359s.063-.266.156-.359l7.281-7.281c.094-.094.234-.156.359-.156s.266.063.359.156l7.281 7.281a.536.536 0 0 1 .156.359zm0-6a.54.54 0 0 1-.156.359l-.781.781a.508.508 0 0 1-.359.156.54.54 0 0 1-.359-.156L9.001 9.499 2.86 15.64c-.094.094-.234.156-.359.156s-.266-.063-.359-.156l-.781-.781c-.094-.094-.156-.234-.156-.359s.063-.266.156-.359L8.642 6.86c.094-.094.234-.156.359-.156s.266.063.359.156l7.281 7.281a.536.536 0 0 1 .156.359z"/></symbol></defs></svg>